<?xml version="1.0" encoding="UTF-8" standalone="no"?>
<!-- Svg Vector Icons : http://www.onlinewebfonts.com/icon -->

<svg
   xmlns:dc="http://purl.org/dc/elements/1.1/"
   xmlns:cc="http://creativecommons.org/ns#"
   xmlns:rdf="http://www.w3.org/1999/02/22-rdf-syntax-ns#"
   xmlns:svg="http://www.w3.org/2000/svg"
   xmlns="http://www.w3.org/2000/svg"
   xmlns:sodipodi="http://sodipodi.sourceforge.net/DTD/sodipodi-0.dtd"
   xmlns:inkscape="http://www.inkscape.org/namespaces/inkscape"
   version="1.1"
   x="0px"
   y="0px"
   viewBox="0 0 1000 1000"
   enable-background="new 0 0 1000 1000"
   xml:space="preserve"
   id="svg40"
   sodipodi:docname="script.svg"
   inkscape:version="0.92.5 (2060ec1f9f, 2020-04-08)"><defs
   id="defs44" /><sodipodi:namedview
   pagecolor="#ffffff"
   bordercolor="#666666"
   borderopacity="1"
   objecttolerance="10"
   gridtolerance="10"
   guidetolerance="10"
   inkscape:pageopacity="0"
   inkscape:pageshadow="2"
   inkscape:window-width="1661"
   inkscape:window-height="862"
   id="namedview42"
   showgrid="false"
   inkscape:snap-bbox="true"
   inkscape:bbox-nodes="true"
   inkscape:zoom="0.236"
   inkscape:cx="-254.11806"
   inkscape:cy="172.84206"
   inkscape:window-x="0"
   inkscape:window-y="40"
   inkscape:window-maximized="0"
   inkscape:current-layer="svg40"
   inkscape:snap-object-midpoints="true"
   inkscape:snap-page="true" />
<metadata
   id="metadata2"> Svg Vector Icons : http://www.onlinewebfonts.com/icon <rdf:RDF><cc:Work
     rdf:about=""><dc:format>image/svg+xml</dc:format><dc:type
       rdf:resource="http://purl.org/dc/dcmitype/StillImage" /><dc:title /></cc:Work></rdf:RDF></metadata>
<path
   style="fill:#cccccc;fill-opacity:1"
   d="m 72.549806,77.797852 c -34.6,0 -62.599609,24.124998 -62.599609,53.851568 v 736.61523 c 0,29.72657 27.999609,53.9375 62.599609,53.9375 H 927.45019 c 34.5,0 62.59961,-24.12476 62.59961,-53.9375 V 131.56153 c -0.1,-29.64041 -28.09923,-53.763678 -62.69922,-53.763678 z M 395.75097,265.15723 h 59.39844 l -0.19922,302.70117 c 0,27.2 -2.60078,50.49961 -7.80078,69.59961 -5.2,19.1 -12.99844,34.49961 -23.39844,46.59961 -10.5,11.9 -23.60156,20.59961 -39.10156,26.09961 -15.6,5.5 -33.8,8.30078 -54.5,8.30078 -18.2,0 -34.69844,-2.89961 -49.39844,-8.59961 -14.7,-5.7 -27.30156,-13.89961 -37.60156,-24.59961 -10.4,-10.7 -18.29844,-23.60078 -23.89844,-38.80078 -5.6,-15.2 -8.40039,-32.20078 -8.40039,-50.80078 v -12.19922 h 58.69922 c 0,54.6 20.20117,82 60.70117,82 10.4,0 19.59922,-1.19922 27.69922,-3.69922 8.1,-2.5 14.99961,-7.20156 20.59961,-14.10156 5.6,-6.9 9.90078,-16.39961 12.80078,-28.59961 2.9,-12.3 4.40039,-28.29961 4.40039,-48.09961 z m 255.5,115.20117 c 84.8,0 127.89922,30.10039 129.19922,90.40039 h -56.69922 c -2,-30.1 -24.70117,-45.20117 -68.20117,-45.20117 -9.7,0 -18.59883,1.00039 -26.79883,2.90039 -8.3,1.9 -15.30039,4.70078 -21.40039,8.30078 -6.1,3.6 -10.80117,7.99883 -14.20117,13.29883 -3.3,5.3 -5,11.40039 -5,18.40039 0,6.3 0.80039,11.5 2.40039,15.5 1.6,4.1 5.30078,7.90039 11.30078,11.40039 6,3.5 14.8,6.89883 26.5,10.29883 11.7,3.4 27.7,7.5 48,12.5 19.6,4.7 36.6,9.60117 51,14.70117 14.4,5.1 26.30039,11.20039 35.90039,18.40039 9.6,7.2 16.59883,15.89883 21.29883,26.29883 4.6,10.3 6.90039,23.30078 6.90039,38.80078 0.3,14.4 -2.80039,27.79922 -8.90039,40.19922 -6.1,12.4 -14.69883,23.20039 -25.79883,32.40039 -11.1,9.2 -24.70117,16.39961 -40.70117,21.59961 -15.9,5.1 -33.89922,7.70117 -53.69922,7.70117 -87.7,0 -134.00117,-34.60039 -138.70117,-103.90039 h 57.70117 c 0.3,39.1 27.10039,58.79883 80.40039,58.79883 11.8,0 22.4,-1.29844 31.5,-3.89844 9.1,-2.6 16.69922,-6.20078 22.69922,-10.80078 6.1,-4.6 10.70039,-10.00078 13.90039,-16.30078 3.1,-6.2 4.69922,-12.89883 4.69922,-20.29883 0,-7.8 -1.19961,-13.89961 -3.59961,-18.59961 -2.4,-4.7 -7.00039,-8.9 -13.90039,-12.5 -6.8,-3.6 -16.4,-7.20156 -28.5,-10.60156 -12.2,-3.6 -27.99961,-7.9 -47.59961,-13 -19.1,-4.7 -35.60039,-9.49922 -49.40039,-14.19922 -13.9,-4.7 -25.19961,-10.39961 -34.09961,-17.09961 -8.9,-6.8 -15.50078,-15.10039 -19.80078,-24.90039 -4.3,-9.9 -6.39844,-22.4 -6.39844,-37.5 0,-13.3 2.79844,-25.60039 8.39844,-36.90039 5.6,-11.4 13.60156,-21.2 24.10156,-29.5 10.4,-8.3 23.09844,-14.79961 37.89844,-19.59961 15,-4.7 31.50156,-7.09961 49.60156,-7.09961 z"
   id="path4"
   inkscape:connector-curvature="0" /><g
   style="fill:#4d4d4d;fill-opacity:1"
   id="g8" /><g
   style="fill:#4d4d4d;fill-opacity:1"
   id="g10" /><g
   style="fill:#4d4d4d;fill-opacity:1"
   id="g12" /><g
   style="fill:#4d4d4d;fill-opacity:1"
   id="g14" /><g
   style="fill:#4d4d4d;fill-opacity:1"
   id="g16" /><g
   style="fill:#4d4d4d;fill-opacity:1"
   id="g18" /><g
   style="fill:#4d4d4d;fill-opacity:1"
   id="g20" /><g
   style="fill:#4d4d4d;fill-opacity:1"
   id="g22" /><g
   style="fill:#4d4d4d;fill-opacity:1"
   id="g24" /><g
   style="fill:#4d4d4d;fill-opacity:1"
   id="g26" /><g
   style="fill:#4d4d4d;fill-opacity:1"
   id="g28" /><g
   style="fill:#4d4d4d;fill-opacity:1"
   id="g30" /><g
   style="fill:#4d4d4d;fill-opacity:1"
   id="g32" /><g
   style="fill:#4d4d4d;fill-opacity:1"
   id="g34" /><g
   style="fill:#4d4d4d;fill-opacity:1"
   id="g36" />
</svg>